<?xml version="1.0" encoding="UTF-8"?>
<svg version="1.1" xmlns="http://www.w3.org/2000/svg" width="180" height="166">
<path d="M0 0 C59.4 0 118.8 0 180 0 C180 54.78 180 109.56 180 166 C120.6 166 61.2 166 0 166 C0 111.22 0 56.44 0 0 Z " fill="#FAFEFA" transform="translate(0,0)"/>
<path d="M0 0 C59.4 0 118.8 0 180 0 C180 54.78 180 109.56 180 166 C120.6 166 61.2 166 0 166 C0 111.22 0 56.44 0 0 Z M28.75 32.375 C14.27361887 50.43844902 10.73573094 70.30461442 12 93 C13.0583778 100.8600116 15.37913299 107.96692612 19 115 C19.43183594 115.87269531 19.86367188 116.74539062 20.30859375 117.64453125 C23.81230656 124.43356826 27.98170169 130.25068973 33 136 C33.53109375 136.62648437 34.0621875 137.25296875 34.609375 137.8984375 C45.67796018 150.00812722 64.61830782 158.94228444 81 160 C103.631345 160.86140067 125.14692619 155.68950712 142.48046875 140.4609375 C153.97212127 129.23653272 161.73234056 116.58629856 166.30859375 101.1953125 C167 99 167 99 168 98 C169.04573222 83.99872731 169.05076425 70.19834744 164 57 C163.69707031 55.86433594 163.39414063 54.72867188 163.08203125 53.55859375 C157.79663389 36.17593313 143.36075911 21.9934357 128 13 C116.33801809 7.05132881 105.00153744 3.61265238 91.875 3.6875 C90.85817139 3.69241455 89.84134277 3.6973291 88.79370117 3.70239258 C64.43281333 4.08003572 44.9689723 14.70160899 28.75 32.375 Z " fill="#FDFEFD" transform="translate(0,0)"/>
<path d="M0 0 C1.051875 0.43441406 2.10375 0.86882813 3.1875 1.31640625 C11.34623622 5.04520366 18.15958853 10.28277857 25 16 C25.67933594 16.56332031 26.35867187 17.12664063 27.05859375 17.70703125 C32.96045595 23.09094711 36.87565287 30.23798901 41 37 C41.53882813 37.80050781 42.07765625 38.60101563 42.6328125 39.42578125 C44.45337953 42.85364889 45.26199032 46.29632575 46.125 50.0625 C46.29386719 50.76955078 46.46273437 51.47660156 46.63671875 52.20507812 C47.09707551 54.13531415 47.54889879 56.06757997 48 58 C48.17869629 58.61182129 48.35739258 59.22364258 48.54150391 59.85400391 C49.6155394 64.88103906 49.22841545 70.1942639 49.25 75.3125 C49.2809375 77.12911133 49.2809375 77.12911133 49.3125 78.98242188 C49.34096965 85.48417725 49.14727721 90.27487959 46 96 C45.68417969 96.73605469 45.36835938 97.47210938 45.04296875 98.23046875 C44.41801825 99.66015002 43.77937327 101.08386722 43.1328125 102.50390625 C42.35006478 104.22865036 41.59656221 105.96685954 40.8671875 107.71484375 C35.13234235 120.50663907 25.21984731 132.03977133 13 139 C12.15284424 139.4962085 12.15284424 139.4962085 11.28857422 140.00244141 C-6.34116717 150.26286736 -25.97183364 154.09345882 -46.26953125 149.74609375 C-66.93897418 144.09822022 -84.5053287 132.3497186 -95.875 113.96875 C-106.71249055 94.7228616 -110.45236757 73.64767034 -104.89453125 52.05078125 C-104.45173828 50.54064453 -104.45173828 50.54064453 -104 49 C-103.75636719 48.08605469 -103.51273438 47.17210937 -103.26171875 46.23046875 C-98.00685927 29.22066295 -84.13814853 13.85648279 -69 5 C-47.56741701 -6.19257112 -22.66926675 -9.53829639 0 0 Z M-55 10 C-56.04671875 10.474375 -57.0934375 10.94875 -58.171875 11.4375 C-73.10847148 18.73048607 -86.65351779 31.79700959 -92.23046875 47.6875 C-92.48441406 48.450625 -92.73835938 49.21375 -93 50 C-93.55953982 51.41783846 -94.12186845 52.83458075 -94.6875 54.25 C-99.98055221 69.37300633 -96.91385058 85.25844827 -92 100 C-91.34 100 -90.68 100 -90 100 C-89.89558594 100.72960937 -89.79117188 101.45921875 -89.68359375 102.2109375 C-86.96407031 113.30659312 -74.91736747 124.45185224 -65.6875 130.375 C-49.23531118 139.83452297 -29.5042727 143.13481374 -10.76953125 138.9453125 C7.98892672 132.54256662 23.54127716 120.04107093 32.4140625 102.1484375 C38.79215765 87.7138011 41.39004931 67.99181048 36.15625 52.7265625 C35.7746875 51.82679687 35.393125 50.92703125 35 50 C34.7525 49.40413086 34.505 48.80826172 34.25 48.19433594 C26.27275338 29.44226662 13.06141185 16.63892183 -5.953125 8.97265625 C-20.90214805 4.20046812 -40.71577892 2.81512233 -55 10 Z " fill="#28D237" transform="translate(119,9)"/>
<path d="M0 0 C3 0.25 3 0.25 5 2.25 C5.1935698 5.19727135 5.26216415 8.05025104 5.24291992 10.99829102 C5.24481827 11.90405884 5.24671661 12.80982666 5.24867249 13.74304199 C5.2523871 16.74675054 5.24166708 19.75021907 5.23046875 22.75390625 C5.22927732 24.83373486 5.22882371 26.91356401 5.2290802 28.99339294 C5.2275142 33.35557414 5.21921501 37.7176734 5.20581055 42.07983398 C5.18881002 47.68471513 5.18499643 53.28950622 5.18575573 58.89441013 C5.18548444 63.18963997 5.18001009 67.48484992 5.17275429 71.78007317 C5.16956165 73.84744046 5.16759883 75.91481001 5.16686058 77.98217964 C5.1647039 80.8651937 5.15597461 83.74811024 5.14526367 86.63110352 C5.14571686 87.49398483 5.14617004 88.35686615 5.14663696 89.24589539 C5.11447415 95.13552585 5.11447415 95.13552585 4 96.25 C0.5625 96.5 0.5625 96.5 -3 96.25 C-5.59529785 92.35705323 -5.28062631 89.1023341 -5.25878906 84.58764648 C-5.2622937 83.70284607 -5.26579834 82.81804565 -5.26940918 81.90643311 C-5.2782214 78.97790717 -5.27237962 76.0496222 -5.265625 73.12109375 C-5.26697168 71.08992974 -5.26891223 69.05876605 -5.27142334 67.02760315 C-5.27437381 62.76975436 -5.27007894 58.51198944 -5.26074219 54.25415039 C-5.24934048 48.78723454 -5.25591219 43.32051489 -5.26788712 37.85360622 C-5.27510158 33.65955619 -5.27281981 29.46555296 -5.26763153 25.27150154 C-5.26629427 23.25519856 -5.26794543 21.23889138 -5.27259064 19.22259331 C-5.27764987 16.40926671 -5.26995449 13.59626154 -5.25878906 10.78295898 C-5.26283752 9.94394547 -5.26688599 9.10493195 -5.27105713 8.24049377 C-5.21344266 0.43445356 -5.21344266 0.43445356 0 0 Z " fill="#31D440" transform="translate(76,33.75)"/>
<path d="M0 0 C2.875 0.6875 2.875 0.6875 3.875 1.6875 C3.98063176 4.14116327 4.02178328 6.56682169 4.02026367 9.02124023 C4.02362228 9.78870575 4.0269809 10.55617126 4.03044128 11.34689331 C4.03997942 13.89664303 4.04189582 16.44632728 4.04296875 18.99609375 C4.04617934 20.76107308 4.04954326 22.52605213 4.05305481 24.29103088 C4.05905325 27.99586606 4.06089398 31.70067788 4.06030273 35.40551758 C4.06020107 40.16176875 4.07385445 44.91787077 4.09107494 49.67408657 C4.10217271 53.32083326 4.10422263 56.96754364 4.10369301 60.6143055 C4.10487645 62.36825131 4.10931844 64.12219796 4.11702538 65.87612724 C4.12678063 68.32564731 4.12396508 70.77484034 4.11791992 73.22436523 C4.12353943 73.95431198 4.12915894 74.68425873 4.13494873 75.43632507 C4.10331567 80.45918433 4.10331567 80.45918433 1.875 82.6875 C-1.125 82.9375 -1.125 82.9375 -4.125 82.6875 C-6.59205936 80.22044064 -6.37126326 78.81517814 -6.40716553 75.44743347 C-6.40468811 74.71905777 -6.40221069 73.99068207 -6.3996582 73.24023438 C-6.4073246 72.08881706 -6.4073246 72.08881706 -6.41514587 70.91413879 C-6.42907774 68.36976384 -6.42808261 65.82565862 -6.42578125 63.28125 C-6.42966589 61.51769916 -6.43400007 59.75414926 -6.43876648 57.99060059 C-6.44623619 54.29171721 -6.44593176 50.59292927 -6.44067383 46.89404297 C-6.4348747 42.14557776 -6.45181712 37.39750203 -6.4750185 32.64910126 C-6.48972341 29.00662946 -6.49063205 25.3642522 -6.48750877 21.72175598 C-6.48802351 19.97059863 -6.49328962 18.21943619 -6.50332069 16.4683075 C-6.51560692 14.0235331 -6.50894143 11.57952698 -6.49731445 9.13476562 C-6.50495819 8.40638992 -6.51260193 7.67801422 -6.52047729 6.92756653 C-6.4992218 4.91369629 -6.4992218 4.91369629 -6.125 1.6875 C-3.125 -0.3125 -3.125 -0.3125 0 0 Z " fill="#31D43F" transform="translate(91.125,40.3125)"/>
<path d="M0 0 C3 0.25 3 0.25 5 2.25 C5.26069641 4.71018982 5.26069641 4.71018982 5.2746582 7.84545898 C5.28419022 9.01684921 5.29372223 10.18823944 5.30354309 11.39512634 C5.30263168 12.66594559 5.30172028 13.93676483 5.30078125 15.24609375 C5.30506638 16.54571548 5.3093515 17.84533722 5.31376648 19.18434143 C5.32123352 21.93747023 5.32093413 24.6904708 5.31567383 27.44360352 C5.3098803 30.97237162 5.32680424 34.50061465 5.3500185 38.02929592 C5.36829154 41.39325082 5.36457065 44.75708943 5.36328125 48.12109375 C5.372491 49.38988876 5.38170074 50.65868378 5.39118958 51.96592712 C5.38496078 53.14046951 5.37873199 54.3150119 5.37231445 55.52514648 C5.37294388 56.5605809 5.3735733 57.59601532 5.3742218 58.66282654 C5 61.25 5 61.25 3.6368866 63.11952209 C2 64.25 2 64.25 -0.5625 64.0625 C-3 63.25 -3 63.25 -5 61.25 C-5.25396729 58.78308105 -5.25396729 58.78308105 -5.25878906 55.63867188 C-5.26509338 54.46405396 -5.27139771 53.28943604 -5.27789307 52.07922363 C-5.2738446 50.80526733 -5.26979614 49.53131104 -5.265625 48.21875 C-5.26753845 46.91675659 -5.2694519 45.61476318 -5.27142334 44.27331543 C-5.27437391 41.51598372 -5.27007924 38.75878151 -5.26074219 36.00146484 C-5.24934753 32.46372927 -5.25590738 28.92629713 -5.26788712 25.38857269 C-5.27684394 22.01944066 -5.2705764 18.65039066 -5.265625 15.28125 C-5.26967346 14.0072937 -5.27372192 12.7333374 -5.27789307 11.42077637 C-5.27158875 10.24615845 -5.26528442 9.07154053 -5.25878906 7.86132812 C-5.25719788 6.8236731 -5.25560669 5.78601807 -5.25396729 4.71691895 C-4.86107028 0.90050195 -3.74253162 0.31187764 0 0 Z " fill="#30D43F" transform="translate(62,49.75)"/>
<path d="M0 0 C2.875 0.6875 2.875 0.6875 3.875 1.6875 C3.97903846 3.39522422 4.01353224 5.10723806 4.02026367 6.81811523 C4.02664352 7.91272568 4.03302338 9.00733612 4.03959656 10.13511658 C4.04070938 11.32673904 4.0418222 12.51836151 4.04296875 13.74609375 C4.04629715 14.96071793 4.04962555 16.1753421 4.05305481 17.42677307 C4.05812923 20.00171529 4.06046298 22.57666411 4.06030273 25.15161133 C4.06248863 29.10443897 4.08063762 33.05698745 4.09960938 37.00976562 C4.10254322 39.50520737 4.10452808 42.00065045 4.10546875 44.49609375 C4.11265427 45.68569199 4.11983978 46.87529022 4.12724304 48.10093689 C4.12416641 49.19869949 4.12108978 50.2964621 4.11791992 51.42749023 C4.11934494 52.3971019 4.12076996 53.36671356 4.12223816 54.3657074 C3.875 56.6875 3.875 56.6875 1.875 58.6875 C-1.125 58.9375 -1.125 58.9375 -4.125 58.6875 C-6.71471573 56.09778427 -6.38248217 55.0467588 -6.3996582 51.44335938 C-6.40919022 50.34882446 -6.41872223 49.25428955 -6.42854309 48.12658691 C-6.42763168 46.94012573 -6.42672028 45.75366455 -6.42578125 44.53125 C-6.43006638 43.31804077 -6.4343515 42.10483154 -6.43876648 40.8548584 C-6.44451792 38.28589503 -6.44500409 35.71691537 -6.44067383 33.14794922 C-6.43751308 29.20382097 -6.46096693 25.2604417 -6.48632812 21.31640625 C-6.48860083 18.82552179 -6.48930475 16.33463529 -6.48828125 13.84375 C-6.497491 12.65728882 -6.50670074 11.47082764 -6.51618958 10.24841309 C-6.50996078 9.15387817 -6.50373199 8.05934326 -6.49731445 6.93164062 C-6.49794388 5.96504517 -6.4985733 4.99844971 -6.4992218 4.00256348 C-6.37572861 3.23859253 -6.25223541 2.47462158 -6.125 1.6875 C-3.125 -0.3125 -3.125 -0.3125 0 0 Z " fill="#31D440" transform="translate(133.125,52.3125)"/>
<path d="M0 0 C3 0.25 3 0.25 5 2.25 C5.26069641 4.33055115 5.26069641 4.33055115 5.2746582 6.92749023 C5.28419022 7.89867294 5.29372223 8.86985565 5.30354309 9.87046814 C5.30263168 10.92254959 5.30172028 11.97463104 5.30078125 13.05859375 C5.30506638 14.13625504 5.3093515 15.21391632 5.31376648 16.32423401 C5.31951726 18.60652971 5.32000457 20.88884374 5.31567383 23.17114258 C5.31251602 26.66975081 5.33595702 30.16751217 5.36132812 33.66601562 C5.36360119 35.88020726 5.36430458 38.09440118 5.36328125 40.30859375 C5.372491 41.35865097 5.38170074 42.40870819 5.39118958 43.49058533 C5.38496078 44.4649202 5.37873199 45.43925507 5.37231445 46.44311523 C5.37294388 47.30090073 5.3735733 48.15868622 5.3742218 49.04246521 C4.91530938 51.74959007 4.2241368 52.66993103 2 54.25 C-1.125 54.0625 -1.125 54.0625 -4 53.25 C-5.2125247 50.82495059 -5.13325424 49.26617206 -5.14526367 46.55664062 C-5.15164352 45.58223022 -5.15802338 44.60781982 -5.16459656 43.60388184 C-5.16570938 42.54866333 -5.1668222 41.49344482 -5.16796875 40.40625 C-5.17129715 39.32621704 -5.17462555 38.24618408 -5.17805481 37.13342285 C-5.18312375 34.84692817 -5.18546315 32.56042608 -5.18530273 30.27392578 C-5.18749094 26.76452545 -5.20565192 23.25543848 -5.22460938 19.74609375 C-5.22754288 17.52864691 -5.22952796 15.31119858 -5.23046875 13.09375 C-5.23765427 12.03853149 -5.24483978 10.98331299 -5.25224304 9.89611816 C-5.24916641 8.92170776 -5.24608978 7.94729736 -5.24291992 6.94335938 C-5.24434494 6.08335327 -5.24576996 5.22334717 -5.24723816 4.33728027 C-4.82119739 0.74047915 -3.44843931 0.28736994 0 0 Z " fill="#30D43F" transform="translate(104,54.75)"/>
<path d="M0 0 C3 0.25 3 0.25 5 2.25 C5.18721852 4.74743862 5.25579767 7.13188683 5.23046875 9.62890625 C5.22978142 10.71980812 5.22978142 10.71980812 5.2290802 11.83274841 C5.22605836 13.37020499 5.21817405 14.90765852 5.20581055 16.44506836 C5.18754573 18.80658735 5.1853009 21.16771461 5.18554688 23.52929688 C5.18063203 25.02083674 5.17480386 26.51237394 5.16796875 28.00390625 C5.16685593 28.71430557 5.1657431 29.4247049 5.16459656 30.15663147 C5.11605365 35.13394635 5.11605365 35.13394635 4 36.25 C0.5625 36.5 0.5625 36.5 -3 36.25 C-5.46466096 32.55300856 -5.25779399 30.65579069 -5.265625 26.24609375 C-5.26753845 25.56700455 -5.2694519 24.88791534 -5.27142334 24.18824768 C-5.27278247 22.75513335 -5.26910496 21.32200659 -5.26074219 19.88891602 C-5.25002167 17.69194015 -5.26065453 15.49577886 -5.2734375 13.29882812 C-5.27211618 11.90624819 -5.26955436 10.51366877 -5.265625 9.12109375 C-5.26336914 7.85193115 -5.26111328 6.58276855 -5.25878906 5.27514648 C-4.90442243 1.13273428 -4.14735513 0.34561293 0 0 Z " fill="#33D542" transform="translate(118,63.75)"/>
<path d="M0 0 C2.375 0.6875 2.375 0.6875 3.375 1.6875 C3.62801239 5.82712283 3.56022549 9.97855996 3.5625 14.125 C3.57474609 15.29611328 3.58699219 16.46722656 3.59960938 17.67382812 C3.60250977 19.34928711 3.60250977 19.34928711 3.60546875 21.05859375 C3.60957764 22.08911865 3.61368652 23.11964355 3.61791992 24.18139648 C3.375 26.6875 3.375 26.6875 1.375 28.6875 C-1.125 28.9375 -1.125 28.9375 -3.625 28.6875 C-6.78085919 25.53164081 -5.91982344 22.02858496 -5.94726562 17.72265625 C-5.94404297 16.55605469 -5.94082031 15.38945313 -5.9375 14.1875 C-5.95361328 13.02089844 -5.96972656 11.85429688 -5.98632812 10.65234375 C-5.98697266 9.53988281 -5.98761719 8.42742187 -5.98828125 7.28125 C-5.99126221 6.25708984 -5.99424316 5.23292969 -5.99731445 4.17773438 C-5.87445068 3.35595703 -5.75158691 2.53417969 -5.625 1.6875 C-2.625 -0.3125 -2.625 -0.3125 0 0 Z " fill="#27D236" transform="translate(34.625,67.3125)"/>
<path d="M0 0 C2.4375 0.8125 2.4375 0.8125 4.4375 2.8125 C4.88376783 5.93796156 4.76160302 9.0962984 4.75 12.25 C4.76611328 13.12205078 4.78222656 13.99410156 4.79882812 14.89257812 C4.79947266 15.73111328 4.80011719 16.56964844 4.80078125 17.43359375 C4.80525269 18.58492798 4.80525269 18.58492798 4.80981445 19.75952148 C4.33790382 22.36168316 3.56181263 23.269885 1.4375 24.8125 C-1.6875 24.625 -1.6875 24.625 -4.5625 23.8125 C-6.32529117 20.28691767 -5.78963881 16.25854409 -5.8125 12.375 C-5.833125 11.50294922 -5.85375 10.63089844 -5.875 9.73242188 C-5.88015625 8.89388672 -5.8853125 8.05535156 -5.890625 7.19140625 C-5.8999707 6.4238501 -5.90931641 5.65629395 -5.91894531 4.86547852 C-5.28669478 1.22397525 -3.66433209 -0.26812186 0 0 Z " fill="#32D441" transform="translate(48.5625,69.1875)"/>
<path d="M0 0 C3 0.25 3 0.25 5 2.25 C5.44804715 5.5635576 5.32409862 8.90959863 5.3125 12.25 C5.32861328 13.178125 5.34472656 14.10625 5.36132812 15.0625 C5.36197266 15.949375 5.36261719 16.83625 5.36328125 17.75 C5.36775269 18.97203125 5.36775269 18.97203125 5.37231445 20.21875 C5.24945068 20.8890625 5.12658691 21.559375 5 22.25 C2 24.25 2 24.25 -1.125 24 C-2.07375 23.7525 -3.0225 23.505 -4 23.25 C-5.7680198 19.7139604 -5.18464913 15.64428745 -5.1875 11.75 C-5.20586914 10.42935547 -5.20586914 10.42935547 -5.22460938 9.08203125 C-5.22654297 8.24027344 -5.22847656 7.39851563 -5.23046875 6.53125 C-5.23457764 5.75845703 -5.23868652 4.98566406 -5.24291992 4.18945312 C-4.80293329 0.6766352 -3.33065302 0.27755442 0 0 Z " fill="#32D440" transform="translate(146,69.75)"/>
</svg>
